<svg xmlns="http://www.w3.org/2000/svg" xmlns:xlink="http://www.w3.org/1999/xlink" width="32" height="32" viewBox="0 0 32 32">
  <defs>
    <clipPath id="clip-path">
      <rect id="長方形_63" data-name="長方形 63" width="32" height="32" transform="translate(834 2108)" fill="#fff" stroke="#707070" stroke-width="1"/>
    </clipPath>
  </defs>
  <g id="icon" transform="translate(-834 -2108)">
    <g id="マスクグループ_22" data-name="マスクグループ 22" clip-path="url(#clip-path)">
      <g id="無料でダウンロードできるスパナとドライバーのアイコン_4_1_" data-name="無料でダウンロードできるスパナとドライバーのアイコン 4 (1)" transform="translate(835 2109.865)">
        <path id="パス_172" data-name="パス 172" d="M2.827,61.741l1.431.42L9.783,67.7l-1.4,1.4-.009.009h0l-.007.007L9.462,70.2l.04.018,4.846-4.846-.018-.04L13.237,64.25l-1.413,1.414-5.587-5.6-.406-1.4a2.219,2.219,0,0,0-1.2-1.211l-2.99-1.63L0,57.474l1.63,3.052A2.256,2.256,0,0,0,2.827,61.741Z" transform="translate(0 -55.826)" fill="#0cb59b"/>
        <path id="パス_173" data-name="パス 173" d="M1004,1057.492l-.015-.015h0l-.007-.007-1.1,1.1h0l-.007.006,5.854,5.859.029.029-.835.835-5.864-5.864-.013-.013h0l-.007-.006-.97.969,0,0h0l-.007.007,5.884,5.884-.835.835-5.888-5.884-1.1,1.1,7.178,7.178a1.565,1.565,0,0,0,2.178.221l2.906-2.906a1.565,1.565,0,0,0-.221-2.178Z" transform="translate(-983.497 -1041.812)" fill="#0cb59b"/>
        <path id="パス_174" data-name="パス 174" d="M129.937,69.459a1.65,1.65,0,0,1,1.714-.39c1.4.489,4,1.113,5.464-.348a12.38,12.38,0,0,0,2.811-6.375.613.613,0,0,0-1.038-.531l-3.24,3.238a1.185,1.185,0,0,1-1.671,0l-3.263-3.262a1.185,1.185,0,0,1,0-1.671l3.241-3.239a.613.613,0,0,0-.531-1.038,12.387,12.387,0,0,0-6.377,2.811c-1.462,1.462-.838,4.068-.348,5.464a1.65,1.65,0,0,1-.39,1.714L115.829,76.31a3.9,3.9,0,1,0,3.629,3.629Zm-15.351,9.763a1.386,1.386,0,1,1,0,1.961A1.385,1.385,0,0,1,114.586,79.222Z" transform="translate(-109.918 -55.834)" fill="#0cb59b"/>
      </g>
    </g>
  </g>
</svg>
