<svg xmlns="http://www.w3.org/2000/svg" width="694" height="88.808" viewBox="0 0 694 88.808">
  <path id="パス_42" data-name="パス 42" d="M-178.439-17.842c7.793-3.529,11.616-9.851,11.616-19.261,0-14.7-9.41-22.5-26.907-22.5H-234.9V28.032h43.816c18.673,0,28.672-8.234,28.672-23.967C-162.412-7.256-167.706-14.608-178.439-17.842Zm-19.7-28.819c8.675,0,13.086,3.97,13.086,11.469,0,8.234-5.146,12.351-16.027,12.351h-15.586V-46.661Zm-18.526,61.754v-25h18.82c11.469,0,16.909,4.264,16.909,12.939,0,7.94-4.705,12.057-13.821,12.057ZM-99.394,29.208c18.232,0,28-8.822,28-25.29V-42.074H-83.749V3.8c0,10.116-4.587,15.056-14.233,15.056-9.763,0-14.115-4.94-14.115-15.644V-42.074h-14.586V3.919C-126.683,20.386-117.155,29.208-99.394,29.208Zm89.514,0C7.882,29.208,18,21.327,18,7.447,18-5.374,11.529-10.667-8.115-14.314c-11.527-2.117-14.821-4.235-14.821-9.528,0-6,4.235-9.057,12.7-9.057,7.058,0,12,1.764,18.82,6.822L14.7-35.251a40.369,40.369,0,0,0-25.055-8c-16.585,0-26.584,7.881-26.584,21.055,0,12.821,6.469,18.232,26.113,21.761C.707,1.684,4,3.8,4,9.094,4,15.681-.7,18.857-10.35,18.857c-8.7,0-15.762-2.588-23.878-9.057L-40.7,18.74C-32.464,25.562-21.877,29.208-9.879,29.208ZM102.337-42.074H52.463v10.351H70.107v49.4H52.463V28.032h49.874V17.681H84.693v-49.4h17.644ZM179.853.978l-26-43.052H139.272V28.032h12.116V-20.195l29.054,48.227h11.527V-42.074H179.853ZM281.718-42.074H228.551V28.032h53.167V17.681H243.137v-20h30.936V-12.667H243.137V-31.722h38.582ZM343,29.208c17.762,0,27.878-7.881,27.878-21.761,0-12.821-6.47-18.115-26.113-21.761-11.527-2.117-14.821-4.235-14.821-9.528,0-6,4.235-9.057,12.7-9.057,7.058,0,12,1.764,18.82,6.822l6.117-9.175a40.369,40.369,0,0,0-25.055-8c-16.585,0-26.584,7.881-26.584,21.055,0,12.821,6.469,18.232,26.113,21.761,11.527,2.117,14.821,4.235,14.821,9.528,0,6.587-4.705,9.763-14.35,9.763-8.7,0-15.762-2.588-23.878-9.057l-6.47,8.94C320.418,25.562,331,29.208,343,29.208Zm88.22,0c17.762,0,27.878-7.881,27.878-21.761,0-12.821-6.469-18.115-26.113-21.761-11.527-2.117-14.821-4.235-14.821-9.528,0-6,4.235-9.057,12.7-9.057,7.058,0,12,1.764,18.82,6.822l6.117-9.175a40.369,40.369,0,0,0-25.055-8c-16.585,0-26.584,7.881-26.584,21.055,0,12.821,6.469,18.232,26.113,21.761C441.809,1.684,445.1,3.8,445.1,9.094c0,6.587-4.705,9.763-14.35,9.763-8.7,0-15.762-2.588-23.878-9.057L400.4,18.74C408.638,25.562,419.224,29.208,431.222,29.208Z" transform="translate(234.9 59.6)" fill="#e6e6e6"/>
</svg>
