<svg xmlns="http://www.w3.org/2000/svg" xmlns:xlink="http://www.w3.org/1999/xlink" width="32" height="32" viewBox="0 0 32 32">
  <defs>
    <clipPath id="clip-path">
      <rect id="長方形_63" data-name="長方形 63" width="32" height="32" transform="translate(834 2108)" fill="#fff" stroke="#707070" stroke-width="1"/>
    </clipPath>
  </defs>
  <g id="icon03" transform="translate(-834 -2108)">
    <g id="マスクグループ_22" data-name="マスクグループ 22" clip-path="url(#clip-path)">
      <g id="マッチョアイコン5" transform="translate(811.691 2108)">
        <path id="パス_182" data-name="パス 182" d="M52.132,21.525c-.111-.374-.333-1.054-.734-2.272-1.3-3.989-8.435-17.977-8.435-17.977A2.205,2.205,0,0,0,40.692.015L31.869,1.1a1.843,1.843,0,0,0-1.4.955,26.365,26.365,0,0,0-1.454,2.715,2.133,2.133,0,0,0,.693,2.687c.872.608,5.027,1.648,5.817,1.3,1.316-.582,2-3.213,2-3.213L39.513,5.2a18.984,18.984,0,0,1,.693,5.387,26.612,26.612,0,0,0,.453,7.1c-.546.188-1.118-.5-2.308-1.616A6.688,6.688,0,0,0,27.976,17c-.54-.457-2.553-.7-4.861-.928V32a8.1,8.1,0,0,0,5.678-3.145,25.946,25.946,0,0,0,8.2-.324,27.365,27.365,0,0,0,8.421-2.81l5.569-1.884A1.835,1.835,0,0,0,52.132,21.525Z" transform="translate(0 0)" fill="#0cb59b"/>
      </g>
    </g>
  </g>
</svg>
