<svg xmlns="http://www.w3.org/2000/svg" width="560" height="800" viewBox="0 0 560 800">
  <g id="グループ_68" data-name="グループ 68" transform="translate(-680 -176)">
    <rect id="長方形_56" data-name="長方形 56" width="560" height="800" transform="translate(680 176)" fill="#0cb59b"/>
    <g id="title" transform="translate(530 277)">
      <rect id="長方形_61" data-name="長方形 61" width="400" height="80" transform="translate(190 210)" fill="#fff"/>
      <text id="人を繋ぐ橋を" transform="translate(201 274)" fill="#0cb59b" font-size="56" font-family="SourceHanSansJP-Bold, Source Han Sans JP" font-weight="700" letter-spacing="0.15em"><tspan x="0" y="0">人を繋ぐ橋を</tspan></text>
      <rect id="長方形_62" data-name="長方形 62" width="400" height="80" transform="translate(270 315)" fill="#fff"/>
      <text id="未来に残す_" data-name="未来に残す。" transform="translate(284 379)" fill="#0cb59b" font-size="56" font-family="SourceHanSansJP-Bold, Source Han Sans JP" font-weight="700" letter-spacing="0.15em"><tspan x="0" y="0">未来に残す。</tspan></text>
    </g>
    <g id="sabtitle" transform="translate(579 163)">
      <text id="DAISO_INDUSTRY_LTD." data-name="DAISO INDUSTRY LTD." transform="translate(356 557)" fill="#fff" font-size="16" font-family="BestChoice-MediumItalic, Best Choice" font-weight="500" font-style="italic" letter-spacing="0.15em"><tspan x="0" y="0">DAISO INDUSTRY LTD.</tspan></text>
      <line id="線_4" data-name="線 4" x2="160" transform="translate(180 551)" fill="none" stroke="#fff" stroke-width="1"/>
    </g>
    <g id="グループ_48" data-name="グループ 48" transform="translate(753.123 229.764)">
      <g id="グループ_31" data-name="グループ 31">
        <g id="グループ_18" data-name="グループ 18">
          <path id="パス_51" data-name="パス 51" d="M239.319,222.275l-.09,34.629h17.3c.041-6.071.172-19.095.6-40.47.6-29.82-1.392-42.871-1.392-42.871-1.4-12.97-8.5-15.869-9.857-16.674A50.113,50.113,0,0,0,238.5,172.85c-1.983,8.568-.231,29.785-.231,29.785Z" fill="#0cb59b"/>
          <path id="パス_52" data-name="パス 52" d="M247.638,157.684a19.049,19.049,0,0,1,8.1,15.879l1.421,38.664-.629,44.225" fill="none" stroke="#00426e" stroke-linecap="round" stroke-linejoin="round" stroke-width="1.414"/>
        </g>
        <g id="グループ_21" data-name="グループ 21">
          <path id="パス_53" data-name="パス 53" d="M206.915,214.6c-16.481-25.751-13.824-68.282-13.824-68.282h27.648S223.4,188.85,206.915,214.6Z" fill="#fff" stroke="#00426e" stroke-linecap="round" stroke-linejoin="round" stroke-width="1.414"/>
          <path id="パス_54" data-name="パス 54" d="M194.872,159.164c3.941-11.839,3.035-28.9,3.035-28.9h18.721s-1.377,16.243,2.837,28.9Z" fill="#fff" stroke="#00426e" stroke-linecap="round" stroke-linejoin="round" stroke-width="1.414"/>
          <path id="パス_55" data-name="パス 55" d="M204.194,166.891h5.354l2.3,8.21,2.112,61.646-7.179,10.082-6.9-10.082,2.112-61.646Z" fill="#113285"/>
          <path id="パス_56" data-name="パス 56" d="M200.61,159.4c-.032-2.782,3.8-2.955,6.416-2.985s6.536.052,6.568,2.834-2.87,8.691-6.473,8.688C203.486,167.93,200.642,162.177,200.61,159.4Z" fill="#113285"/>
          <path id="パス_57" data-name="パス 57" d="M170.475,216.117l-1.947-58.786s24.441-11.774,24.546-10.012c.467,7.817-4.152,9.087,14.2,44.912,18.208-33.067,13.308-37.133,13.775-44.95.105-1.762,25.183,10.083,25.183,10.083l-2.16,58.753,2.16,32.23-2.146,8.557-73.467-.325-2.091-10.306Z" fill="#0cb59b"/>
          <path id="パス_58" data-name="パス 58" d="M170.619,256.38l-2.091-10.305,1.947-30.157-1.947-58.785s24.441-11.775,24.546-10.013c.467,7.818-4.152,9.088,14.2,44.913,18.208-33.067,13.308-37.133,13.775-44.95.105-1.762,25.183,10.083,25.183,10.083l-2.16,58.752,2.16,32.231-2.146,8.557" fill="none" stroke="#00426e" stroke-linecap="round" stroke-linejoin="round" stroke-width="1.414"/>
          <path id="パス_59" data-name="パス 59" d="M207.274,192.231s-.67,35.081,0,63.085" fill="none" stroke="#00426e" stroke-linecap="round" stroke-linejoin="round" stroke-width="1.414"/>
          <g id="グループ_19" data-name="グループ 19">
            <path id="パス_60" data-name="パス 60" d="M192.147,181.272h-15.9v3.144l7.6,2.373,8.3-2.159v-1.482" fill="none" stroke="#00426e" stroke-linecap="round" stroke-linejoin="round" stroke-width="1.414"/>
            <path id="パス_61" data-name="パス 61" d="M192.147,185.06l-.528,12.11A1.519,1.519,0,0,1,190.1,198.6h-11.25a1.52,1.52,0,0,1-1.515-1.4l-1.093-12.784" fill="none" stroke="#00426e" stroke-linecap="round" stroke-linejoin="round" stroke-width="1.414"/>
          </g>
          <g id="グループ_20" data-name="グループ 20">
            <path id="パス_62" data-name="パス 62" d="M238.2,181.272h-15.9v3.144l7.952,2.373,7.951-2.159v-1.482" fill="none" stroke="#00426e" stroke-linecap="round" stroke-linejoin="round" stroke-width="1.414"/>
            <path id="パス_63" data-name="パス 63" d="M238.2,185.06l-.528,12.11a1.519,1.519,0,0,1-1.516,1.431H224.9a1.519,1.519,0,0,1-1.514-1.4l-1.094-12.784" fill="none" stroke="#00426e" stroke-linecap="round" stroke-linejoin="round" stroke-width="1.414"/>
          </g>
          <path id="パス_64" data-name="パス 64" d="M220.462,150.122a42.781,42.781,0,0,0-3.555-5.993c.349,3.3-1.377,6.306-9.271,11.618-.61.411,2.48,2.27,5.959,6.215a30.553,30.553,0,0,1,4.434,7.9A36.562,36.562,0,0,0,220.462,150.122Z" fill="#fff" stroke="#00426e" stroke-linecap="round" stroke-linejoin="round" stroke-width="1.414"/>
          <path id="パス_65" data-name="パス 65" d="M193.268,148.588c-.093-.252,4.412-5.052,4.37-4.648-.349,3.3,1.636,6.811,9.53,12.123.571.384-4.139,2.244-6.746,6.067a54.225,54.225,0,0,0-4.219,7.731A48.3,48.3,0,0,1,193.268,148.588Z" fill="#fff" stroke="#00426e" stroke-linecap="round" stroke-linejoin="round" stroke-width="1.414"/>
          <path id="パス_66" data-name="パス 66" d="M197.349,144.031s-3.626-1.435-6.742,3.071c0,0-9.234,11.7-8.773,22.759,0,0,18.735,6.989,21.089,13.644C202.923,183.505,188.014,155.613,197.349,144.031Z" fill="#617989" stroke="#00426e" stroke-linecap="round" stroke-linejoin="round" stroke-width="1.414"/>
          <path id="パス_67" data-name="パス 67" d="M217.162,144.031s3.626-1.435,6.742,3.071c0,0,9.233,11.7,8.772,22.759,0,0-18.431,6.989-20.784,13.644C211.892,183.505,226.5,155.613,217.162,144.031Z" fill="#617989" stroke="#00426e" stroke-linecap="round" stroke-linejoin="round" stroke-width="1.414"/>
        </g>
        <g id="グループ_27" data-name="グループ 27">
          <path id="パス_68" data-name="パス 68" d="M227.872,113.594a20.463,20.463,0,0,1-.678,11.086c-.379,1.062-.675,3.733-2.476,5.968-1.217,1.51-3.133,2.324-5.255,3.5l-.108-2.78s6.681-7.906,6.06-18.385Z" fill="#e5e6e6" stroke="#00426e" stroke-linecap="round" stroke-linejoin="round" stroke-width="1.414"/>
          <g id="グループ_24" data-name="グループ 24">
            <path id="パス_69" data-name="パス 69" d="M218.525,120.652c-1.115,3.158-3.435,8.634-.521,9.663s6.1-.135,9.033-6.239c1.452-3.018.332-7.082-2.581-8.11S219.64,117.494,218.525,120.652Z" fill="#fff" stroke="#00426e" stroke-linecap="round" stroke-linejoin="round" stroke-width="1.414"/>
            <path id="パス_70" data-name="パス 70" d="M204.285,87.117c-7.8-.264-16.1,4.312-18.9,16.922,0,0-7.118,34.282,12.589,40.286,0,0,14.345,1.694,20.966-13.464,0,0,3.878-12.3,4.286-23.834C223.454,100.716,221.353,87.7,204.285,87.117Z" fill="#fff"/>
            <path id="パス_71" data-name="パス 71" d="M184.59,115.486s-2.039,24.758,12.89,29.3" fill="none" stroke="#00426e" stroke-linecap="round" stroke-linejoin="round" stroke-width="1.414"/>
            <path id="パス_72" data-name="パス 72" d="M197.184,144.673s5.249,1.537,12.206-2.741" fill="none" stroke="#00426e" stroke-linecap="round" stroke-linejoin="round" stroke-width="1.414"/>
            <path id="パス_73" data-name="パス 73" d="M219.156,129.308s.019,3.649-5.192,8.854" fill="none" stroke="#00426e" stroke-linecap="round" stroke-linejoin="round" stroke-width="1.414"/>
            <path id="パス_74" data-name="パス 74" d="M207.3,118.3a1.753,1.753,0,1,1-1.682-1.952A1.826,1.826,0,0,1,207.3,118.3Z" fill="#00426e"/>
            <path id="パス_75" data-name="パス 75" d="M191.954,117.8a1.632,1.632,0,1,1-1.545-1.948A1.77,1.77,0,0,1,191.954,117.8Z" fill="#00426e"/>
            <g id="グループ_22" data-name="グループ 22">
              <path id="パス_76" data-name="パス 76" d="M187.067,112.519a4.972,4.972,0,0,1,6.274.228" fill="none" stroke="#00426e" stroke-linecap="round" stroke-linejoin="round" stroke-width="1.414"/>
            </g>
            <g id="グループ_23" data-name="グループ 23">
              <path id="パス_77" data-name="パス 77" d="M210.07,113.274s-3.621-3.028-7.338-.509" fill="none" stroke="#00426e" stroke-linecap="round" stroke-linejoin="round" stroke-width="1.414"/>
            </g>
            <path id="パス_78" data-name="パス 78" d="M195.789,122.995l-1.7,4.36,1.007,1.058" fill="none" stroke="#00426e" stroke-linecap="round" stroke-linejoin="round" stroke-width="1.414"/>
            <path id="パス_79" data-name="パス 79" d="M201.326,132.64c-1.281,2.461-2.105,3.524-4.138,3.573-2.49.059-3.555-3.59-3.555-3.59a23.6,23.6,0,0,1,3.262-.274C198.535,132.341,201.326,132.64,201.326,132.64Z" fill="#fff" stroke="#00426e" stroke-linecap="round" stroke-linejoin="round" stroke-width="1.06"/>
          </g>
          <path id="パス_80" data-name="パス 80" d="M183.708,108.089a12.077,12.077,0,0,0-1.127,5.769c.116,1.8,1.127,2.07,2.052,5.834l.3-11.528Z" fill="#e5e6e6" stroke="#00426e" stroke-linecap="round" stroke-linejoin="round" stroke-width="1.414"/>
          <path id="パス_81" data-name="パス 81" d="M215.909,109.227s1.092,9.31,2.782,14.427a51.534,51.534,0,0,1,1.516-5.132c.937-2.841,4.007-3.349,5.186-2.157l.076-11.715-9.853.805Z" fill="#616161" stroke="#00426e" stroke-linecap="round" stroke-linejoin="round" stroke-width="1.414"/>
          <g id="グループ_25" data-name="グループ 25">
            <path id="パス_82" data-name="パス 82" d="M218.365,111.587c3.248.833,8.618,4.765,8.618,4.765l.319-2.9C225.142,112.218,218.365,111.587,218.365,111.587Z" fill="#e5e6e6"/>
            <path id="パス_83" data-name="パス 83" d="M225.8,115.941s-5.07-3.7-7.372-4.659c0,0,6.721.767,8.88,2" fill="none" stroke="#00426e" stroke-linecap="round" stroke-linejoin="round" stroke-width="1.414"/>
          </g>
          <path id="パス_84" data-name="パス 84" d="M229.9,98.384c-2.276-15.566-17.139-17.537-17.139-17.537a30.176,30.176,0,0,1-3.309-3.121l-6.412-.445c-1.1-.156-1.3-.038-2.686,2.6a21.73,21.73,0,0,0-8.367,4.7c-7.351,5.219-9.195,19.857-9.195,19.857l-3.945,1.132c-1.309.646-1.855,2.579,6.96,2.613,0,0,21.995-1.18,35.142,3.081,2.1.68,10.441,3.641,10.745,3.116a1.808,1.808,0,0,0,.051-1.761l-1.583-1.623S231.423,108.836,229.9,98.384Z" fill="#fff"/>
          <path id="パス_85" data-name="パス 85" d="M230.343,109.324c.264-1.4.576-3.934-.448-10.94-1.772-12.122-11.344-16.032-15.42-17.154" fill="none" stroke="#00426e" stroke-linecap="round" stroke-linejoin="round" stroke-width="1.414"/>
          <path id="パス_86" data-name="パス 86" d="M211.606,80.17a19.593,19.593,0,0,1-2.159-2.444l-7.078-.479c-.54-.011-.771.182-2.162,2.816a21.54,21.54,0,0,0-8.225,4.512c-7.351,5.219-9.195,19.857-9.195,19.857l-4.193,1.2c-.03,2.11.258,2.454,7.208,2.542,0,0,21.816-.479,35.142,3.081,2.131.569,10.428,3.633,10.745,3.116,1.14-1.86-.766-3.5-.766-3.5" fill="none" stroke="#00426e" stroke-linecap="round" stroke-linejoin="round" stroke-width="1.414"/>
          <path id="パス_87" data-name="パス 87" d="M209.644,77.855s-4.694,6.035-5.381,18.558" fill="none" stroke="#00426e" stroke-linecap="round" stroke-linejoin="round" stroke-width="1.414"/>
          <path id="パス_88" data-name="パス 88" d="M196.311,95.813s.461-11.519,4.038-15.936" fill="none" stroke="#00426e" stroke-linecap="round" stroke-linejoin="round" stroke-width="1.414"/>
          <g id="グループ_26" data-name="グループ 26">
            <path id="パス_89" data-name="パス 89" d="M214.992,110.006s-.492,18.119,1.7,24.92l2.8-2.268s-1.568-15.245-1.065-21.935Z" fill="#e5e6e6" stroke="#00426e" stroke-linecap="round" stroke-linejoin="round" stroke-width="1.414"/>
            <path id="パス_90" data-name="パス 90" d="M193.146,142.606s.352,2.482,6.8,3.211c5.733.648,14.673-2.116,21.821-15.568l-2.227.392a37.889,37.889,0,0,1-2.5,3.107,35.12,35.12,0,0,1-8.393,7.108C204.37,143.3,201.033,144.877,193.146,142.606Z" fill="#e5e6e6" stroke="#00426e" stroke-linecap="round" stroke-linejoin="round" stroke-width="1.414"/>
            <path id="パス_91" data-name="パス 91" d="M203.419,143.578a17.986,17.986,0,0,1,.751,1.743" fill="none" stroke="#00426e" stroke-linecap="round" stroke-linejoin="round" stroke-width="1.414"/>
            <path id="パス_92" data-name="パス 92" d="M206.994,141.932s.6,1.487.6,1.646" fill="none" stroke="#00426e" stroke-linecap="round" stroke-linejoin="round" stroke-width="1.414"/>
          </g>
        </g>
        <g id="グループ_30" data-name="グループ 30">
          <path id="パス_93" data-name="パス 93" d="M99.79,128.078s4.158,2.16,12.022,9.853a118.828,118.828,0,0,0,13.3,10.822s10.342,7,12.647,10.066c2.337,3.109,11.909,9.205,14.791,11.524A138.291,138.291,0,0,1,167.19,183.6c1.633,1.7.983,4.408,2.9,6.238,0,0,7.2-12.231,5.345-35.222l-5.7-4.88-6.467-4.4-11.395-6.305s-8.969-5.944-16.8-10.616a67.878,67.878,0,0,0-16.505-7.146l-11.843-6.068Z" fill="#0cb59b" stroke="#00426e" stroke-linecap="round" stroke-linejoin="round" stroke-width="1.414"/>
          <path id="パス_94" data-name="パス 94" d="M108.584,126.506c-3.573,4.187-5.108,3.169-7.868,1.037-2.289-1.768-2.963-3.99-1.2-8.115s5.423-5.064,8.083-3.927S112.074,122.417,108.584,126.506Z" fill="#fff" stroke="#00426e" stroke-linecap="round" stroke-linejoin="round" stroke-width="1.414"/>
          <g id="グループ_29" data-name="グループ 29">
            <path id="パス_95" data-name="パス 95" d="M96.454,103.385c-3.042-1.829-13.761-9.911-13.761-9.911s-4.438-.689-2.171,3.048l5.931,5.247s3.885,3.276,4.349,5.5c0,0-6.952,2.443-5.024,7.213a5.144,5.144,0,0,0-1.7,3.906s-.809,2.916.056,4.284l2.389,2.431s3.351,1.479,5.595,1.128c0,0,6.317,3.035,10.382,1.8l5.42-3.322.594-7.364C105.841,110.552,101.973,106.7,96.454,103.385Z" fill="#fff"/>
            <path id="パス_96" data-name="パス 96" d="M109.029,116.937c-2.283-3.523-3.348-7.416-6.176-9.612-2.139-1.661-5.193-2.809-6.756-4.242-2.845-2.609-13.4-9.609-13.4-9.609s-3.8-.05-2.17,3.048l5.93,5.247s4.169,3.634,4.632,5.86c0,0-6,.443-5.6,5.812,0,0,2.375,6.067,8.513,7.047,0,0,2.778,2.331,4.537.868,0,0,.917-1.073-.832-3.031l-5.023-3.985,1.385-1.768" fill="none" stroke="#00426e" stroke-linecap="round" stroke-linejoin="round" stroke-width="1.414"/>
            <path id="パス_97" data-name="パス 97" d="M97.155,106.7s-1.76,3.011-1.26,5.1" fill="none" stroke="#00426e" stroke-linecap="round" stroke-linejoin="round" stroke-width="1.414"/>
            <path id="パス_98" data-name="パス 98" d="M85.892,114.689a4.509,4.509,0,0,0-1.814,3.7s-.809,2.916.056,4.284l2.389,2.431s7.546,3.331,7.573-1.19c0,0,2.679.92,2.326-1.616" fill="none" stroke="#00426e" stroke-linecap="round" stroke-linejoin="round" stroke-width="1.414"/>
            <path id="パス_99" data-name="パス 99" d="M84.23,118.612s1.334,4.812,9.486,5.243" fill="none" stroke="#00426e" stroke-linecap="round" stroke-linejoin="round" stroke-width="1.414"/>
            <path id="パス_100" data-name="パス 100" d="M98.312,121.51a8.421,8.421,0,0,0,4.188,1.406" fill="none" stroke="#00426e" stroke-linecap="round" stroke-linejoin="round" stroke-width="1.414"/>
            <path id="パス_101" data-name="パス 101" d="M92.746,126.106s5.159,3.769,9.394,2.342" fill="none" stroke="#00426e" stroke-linecap="round" stroke-linejoin="round" stroke-width="1.414"/>
            <g id="グループ_28" data-name="グループ 28">
              <path id="パス_102" data-name="パス 102" d="M99.828,111.387s-1.185,1.154-8.981,1.436c0,0-4.709,1.557.154,4.516,0,0,1.759-.051,3.86-.01a31.883,31.883,0,0,1,5.21.568s3.6.446,4.831-1.669Z" fill="#fff"/>
              <path id="パス_103" data-name="パス 103" d="M99.828,111.387s-1.185,1.154-8.981,1.436c0,0-4.373,1.75.154,4.516,0,0,1.759-.051,3.86-.01a31.883,31.883,0,0,1,5.21.568s3.1.056,4.831-1.669" fill="none" stroke="#00426e" stroke-linecap="round" stroke-linejoin="round" stroke-width="1.414"/>
            </g>
            <path id="パス_104" data-name="パス 104" d="M91.855,109.25a6.727,6.727,0,0,1,1.861,3.026s-1.831-.858-2.5-.306" fill="none" stroke="#00426e" stroke-linecap="round" stroke-linejoin="round" stroke-width="1.414"/>
          </g>
          <path id="パス_105" data-name="パス 105" d="M170.053,155.823s4.133,19.883,1.022,31.983c0,0-1.988-18.857-6.3-24.62" fill="none" stroke="#00426e" stroke-linecap="round" stroke-linejoin="round" stroke-width="1.414"/>
          <path id="パス_106" data-name="パス 106" d="M119.042,124.543s1.329,7.577-5.9,10.523" fill="none" stroke="#00426e" stroke-linecap="round" stroke-linejoin="round" stroke-width="1.414"/>
        </g>
      </g>
      <g id="グループ_47" data-name="グループ 47">
        <path id="パス_107" data-name="パス 107" d="M265.64,154.873c-.928.243-11.888,3.172-13.6,22.472,0,0-7.325,30.926-7.375,41.224-.041,8.476,7.546,5.745,10.021,4.889l12.547-34.714Z" fill="#0cb59b" stroke="#00426e" stroke-linecap="round" stroke-linejoin="round" stroke-width="1.414"/>
        <g id="グループ_35" data-name="グループ 35">
          <path id="パス_108" data-name="パス 108" d="M322.267,241.665c.144,9.372.588,8.45-.088,13.2-.094.664-.38,1.729-.62,2.725H252.582c-.005-.5-.005-1.046,0-1.64.035-2.538-1.221-2.2-1.14-7.184.122-7.485,1.2-18.132,1.677-27.874.632-13.05,0-28.844,1.634-39.6,2.067-13.574,6.288-24.026,10.645-26.966s12.52-4.075,12.52-4.075l23.31-1.4s14.821,1.978,23.506,8.719c0,0-3.744,31.851-4.487,52.576C320,217.135,322.068,228.729,322.267,241.665Z" fill="#0cb59b"/>
          <path id="パス_109" data-name="パス 109" d="M321.781,256.683c.676-4.746.63-5.646.486-15.018-.2-12.936-2.267-24.53-2.017-31.522.743-20.725,4.487-52.576,4.487-52.576-8.685-6.741-23.506-8.719-23.506-8.719l-23.31,1.4s-8.163,1.135-12.52,4.075-8.578,13.392-10.645,26.966c-1.639,10.76-1,26.554-1.634,39.6-.472,9.742-1.555,20.389-1.677,27.874-.081,4.985,1.168,5.584,1.134,8.123" fill="none" stroke="#00426e" stroke-linecap="round" stroke-linejoin="round" stroke-width="1.414"/>
          <path id="パス_110" data-name="パス 110" d="M302.141,149.582s-4.328,11.186-14.422,25.363c-11.333,15.92-16.671,20.048-16.671,20.048s-4.927-33.75.461-40.025a25.19,25.19,0,0,1,6.267-6.059c7.292-4.664,18.806-9.813,22.658-6.769.629.5.656,2.082.824,3.055C301.5,146.577,302.075,147.376,302.141,149.582Z" fill="#fff" stroke="#00426e" stroke-linecap="round" stroke-linejoin="round" stroke-width="1.414"/>
          <path id="パス_111" data-name="パス 111" d="M275.392,166.62l-5.371,10.97-.806,10.206,1.833,7.2,8.191-8.924,1.621-9.206-2.224-10.243Z" fill="#113285" stroke="#00426e" stroke-linecap="round" stroke-linejoin="round" stroke-width="1.414"/>
          <path id="パス_112" data-name="パス 112" d="M270.794,167.759s-.257-2.975,2.852-6.15a23.4,23.4,0,0,1,5.523-4.38,10.48,10.48,0,0,1,4.561,4.952,22.387,22.387,0,0,1,1.835,7.191" fill="none" stroke="#00426e" stroke-linecap="round" stroke-linejoin="round" stroke-width="1.414"/>
          <path id="パス_113" data-name="パス 113" d="M273.729,162.041a17.824,17.824,0,0,0,1.691,4.981s.407,1.037,2.1.982,3.868-2.268,6.21-5.823a12.113,12.113,0,0,0-4.652-4.949S273.963,160.5,273.729,162.041Z" fill="#113285"/>
          <path id="パス_114" data-name="パス 114" d="M301.709,145.65a8.962,8.962,0,0,1,4.974,7c.936,8.551,1.584,10.833,1.584,10.833s-14.953,6.8-29.028,22.585c0,0,1.755-5.862,11.623-22.425C293.136,159.828,302.151,149.02,301.709,145.65Z" fill="#0cb59b" stroke="#00426e" stroke-linecap="round" stroke-linejoin="round" stroke-width="1.414"/>
          <path id="パス_115" data-name="パス 115" d="M278.6,149.273s-.324-.718-3.968,1.11c-2.23,1.12-11.644,13.787-11.644,13.787s1.353,3.939,6.227,23.625c0,0-.827-21.949.755-26.2C270.87,159.177,275.206,153.351,278.6,149.273Z" fill="#0cb59b" stroke="#00426e" stroke-linecap="round" stroke-linejoin="round" stroke-width="1.414"/>
          <g id="グループ_32" data-name="グループ 32">
            <path id="パス_116" data-name="パス 116" d="M278.619,129.329a133.2,133.2,0,0,1,.6,14.74c.013,2.733-.483,5.327-.968,6.074-.505.777,1.577,5.342,1.577,5.342s2.427-.593,10.084-4.206c7.123-3.361,9.338-8.48,9.338-8.48,0-1.587-1.582-7.9-1.1-16.053Z" fill="#fff" stroke="#00426e" stroke-linecap="round" stroke-linejoin="round" stroke-width="1.414"/>
          </g>
          <path id="パス_117" data-name="パス 117" d="M271.048,195.84s-3.656,19.97-2.093,60.107" fill="none" stroke="#00426e" stroke-linecap="round" stroke-linejoin="round" stroke-width="1.414"/>
          <g id="グループ_33" data-name="グループ 33">
            <path id="パス_118" data-name="パス 118" d="M308.267,183.829H292.135v3.326l7.034,2.93,9.1-2.7v-1.568" fill="none" stroke="#00426e" stroke-linecap="round" stroke-linejoin="round" stroke-width="1.414"/>
            <path id="パス_119" data-name="パス 119" d="M308.267,187.836l-.535,12.81c-.048.849-8.064,4.366-15.6.16V187.154" fill="none" stroke="#00426e" stroke-linecap="round" stroke-linejoin="round" stroke-width="1.414"/>
          </g>
          <g id="グループ_34" data-name="グループ 34">
            <path id="パス_120" data-name="パス 120" d="M261.5,184.265l-6.728-.195-.088,3.049,2.856,2.772,3.866-2.369.042-1.437" fill="none" stroke="#00426e" stroke-linecap="round" stroke-linejoin="round" stroke-width="1.414"/>
            <path id="パス_121" data-name="パス 121" d="M261.4,187.94l-.563,11.739c-.042.779-3.2,1.9-6.509-.04l.362-12.519" fill="none" stroke="#00426e" stroke-linecap="round" stroke-linejoin="round" stroke-width="1.414"/>
          </g>
          <path id="パス_122" data-name="パス 122" d="M316.506,237.061s-3.443,4.593-.638,17.758" fill="none" stroke="#00426e" stroke-linecap="round" stroke-linejoin="round" stroke-width="1.414"/>
        </g>
        <g id="グループ_36" data-name="グループ 36">
          <path id="パス_123" data-name="パス 123" d="M321.412,156.143s4.39-1.749,11.029,8.561c3.5,5.43,1.867,24.064,2.266,29.339.739,9.782,7.081,30.775-9.487,31.424C312.7,225.959,311.881,163.3,321.412,156.143Z" fill="#0cb59b" stroke="#00426e" stroke-linecap="round" stroke-linejoin="round" stroke-width="1.414"/>
          <path id="パス_124" data-name="パス 124" d="M327.314,226.027c5.755-3.427,6.31-14.824.268-18.072-6.532-3.513-10.051,1.013-16.813,3.1-5.78,1.781-25.017,8.114-31.616,10.361-4.178,1.423-5.019,10.645.086,14.487,1.341,1.008,2.8.564,10.729-.389C296.086,234.775,320.431,230.126,327.314,226.027Z" fill="#0cb59b"/>
          <path id="パス_125" data-name="パス 125" d="M315.782,208.867c-8.2,3.887-12.659,4.575-19.434,6.925-7.776,2.7-11.9,5.1-16.418,5.748-5.9.844-5.8,10.517-.691,14.359,1.341,1.008,2.641.251,10.89-.761a206.167,206.167,0,0,0,21.8-3.328c5.337-1.233,16.344-6.386,19.382-7.9" fill="none" stroke="#00426e" stroke-linecap="round" stroke-linejoin="round" stroke-width="1.414"/>
          <path id="パス_126" data-name="パス 126" d="M291.489,220.87a11.811,11.811,0,0,1,2.276,11.574" fill="none" stroke="#00426e" stroke-linecap="round" stroke-linejoin="round" stroke-width="1.414"/>
          <path id="パス_127" data-name="パス 127" d="M323.221,178.482s-6.735,15.472-6.779,30.176a6.592,6.592,0,0,1,4.946-2.492" fill="none" stroke="#00426e" stroke-linecap="round" stroke-linejoin="round" stroke-width="1.414"/>
        </g>
        <g id="グループ_44" data-name="グループ 44">
          <path id="パス_128" data-name="パス 128" d="M307.679,114.636A20.463,20.463,0,0,1,307,125.722c-.379,1.062-.675,3.734-2.476,5.968-1.217,1.51-3.133,2.324-5.255,3.5l-.108-2.78s6.681-7.906,6.06-18.385Z" fill="#e5e6e6" stroke="#00426e" stroke-linecap="round" stroke-linejoin="round" stroke-width="1.414"/>
          <g id="グループ_39" data-name="グループ 39">
            <path id="パス_129" data-name="パス 129" d="M298.332,121.694c-1.115,3.158-3.435,8.634-.521,9.663s6.1-.135,9.033-6.239c1.452-3.018.332-7.081-2.581-8.11S299.447,118.537,298.332,121.694Z" fill="#fff" stroke="#00426e" stroke-linecap="round" stroke-linejoin="round" stroke-width="1.414"/>
            <path id="パス_130" data-name="パス 130" d="M284.092,88.159c-7.8-.264-16.1,4.312-18.9,16.922,0,0-7.117,34.282,12.589,40.286,0,0,14.345,1.694,20.966-13.464,0,0,3.878-12.3,4.286-23.834C303.261,101.758,301.16,88.738,284.092,88.159Z" fill="#fff"/>
            <path id="パス_131" data-name="パス 131" d="M264.4,116.528s-2.039,24.758,12.89,29.3" fill="none" stroke="#00426e" stroke-linecap="round" stroke-linejoin="round" stroke-width="1.414"/>
            <path id="パス_132" data-name="パス 132" d="M276.991,145.715s5.249,1.538,12.206-2.741" fill="none" stroke="#00426e" stroke-linecap="round" stroke-linejoin="round" stroke-width="1.414"/>
            <path id="パス_133" data-name="パス 133" d="M298.963,130.35s.019,3.649-5.192,8.854" fill="none" stroke="#00426e" stroke-linecap="round" stroke-linejoin="round" stroke-width="1.414"/>
            <path id="パス_134" data-name="パス 134" d="M286.158,119.451a1.632,1.632,0,1,1-1.566-1.818A1.7,1.7,0,0,1,286.158,119.451Z" fill="#00426e"/>
            <path id="パス_135" data-name="パス 135" d="M271.51,118.987a1.52,1.52,0,1,1-1.439-1.814A1.648,1.648,0,0,1,271.51,118.987Z" fill="#00426e"/>
            <g id="グループ_37" data-name="グループ 37">
              <path id="パス_136" data-name="パス 136" d="M267.234,113.975a4.219,4.219,0,0,1,5.914-.186" fill="none" stroke="#00426e" stroke-linecap="round" stroke-linejoin="round" stroke-width="1.414"/>
            </g>
            <g id="グループ_38" data-name="グループ 38">
              <path id="パス_137" data-name="パス 137" d="M289.14,114.425a5.049,5.049,0,0,0-6.6-.618" fill="none" stroke="#00426e" stroke-linecap="round" stroke-linejoin="round" stroke-width="1.414"/>
            </g>
            <path id="パス_138" data-name="パス 138" d="M275.6,124.037l-1.7,4.36,1.007,1.058" fill="none" stroke="#00426e" stroke-linecap="round" stroke-linejoin="round" stroke-width="1.414"/>
            <path id="パス_139" data-name="パス 139" d="M273.627,134.045s2.543,3.945,6.441.168" fill="none" stroke="#00426e" stroke-linecap="round" stroke-linejoin="round" stroke-width="1.414"/>
          </g>
          <path id="パス_140" data-name="パス 140" d="M263.515,109.131a12.077,12.077,0,0,0-1.127,5.769c.116,1.8,1.127,2.07,2.052,5.834l.3-11.528Z" fill="#e5e6e6" stroke="#00426e" stroke-linecap="round" stroke-linejoin="round" stroke-width="1.414"/>
          <path id="パス_141" data-name="パス 141" d="M295.716,110.269s1.092,9.31,2.782,14.427a51.539,51.539,0,0,1,1.516-5.132c.937-2.841,4.007-3.348,5.186-2.157l.076-11.715-9.853.805Z" fill="#616161" stroke="#00426e" stroke-linecap="round" stroke-linejoin="round" stroke-width="1.414"/>
          <g id="グループ_40" data-name="グループ 40">
            <path id="パス_142" data-name="パス 142" d="M298.172,112.629c3.248.834,8.618,4.765,8.618,4.765l.319-2.9C304.949,113.26,298.172,112.629,298.172,112.629Z" fill="#e5e6e6"/>
            <path id="パス_143" data-name="パス 143" d="M305.605,116.984s-5.07-3.7-7.372-4.66c0,0,6.721.767,8.88,2" fill="none" stroke="#00426e" stroke-linecap="round" stroke-linejoin="round" stroke-width="1.414"/>
          </g>
          <path id="パス_144" data-name="パス 144" d="M309.7,99.426c-2.276-15.566-17.139-17.537-17.139-17.537a30.176,30.176,0,0,1-3.309-3.121l-6.412-.445c-1.1-.156-1.3-.038-2.686,2.6a21.724,21.724,0,0,0-8.367,4.7c-7.351,5.218-9.2,19.856-9.2,19.856l-3.945,1.132c-1.309.646-1.855,2.579,6.96,2.613,0,0,21.995-1.18,35.142,3.081,2.1.68,10.441,3.641,10.745,3.116a1.806,1.806,0,0,0,.051-1.76l-1.583-1.624S311.23,109.878,309.7,99.426Z" fill="#fff"/>
          <path id="パス_145" data-name="パス 145" d="M310.15,110.367c.264-1.4.576-3.935-.448-10.941C307.93,87.3,298.358,83.394,294.283,82.272" fill="none" stroke="#00426e" stroke-linecap="round" stroke-linejoin="round" stroke-width="1.414"/>
          <path id="パス_146" data-name="パス 146" d="M291.413,81.212a19.594,19.594,0,0,1-2.159-2.444l-7.077-.479c-.541-.011-.772.182-2.163,2.816a21.533,21.533,0,0,0-8.225,4.513c-7.351,5.218-9.2,19.856-9.2,19.856l-4.193,1.2c-.03,2.111.258,2.454,7.208,2.542,0,0,21.816-.479,35.142,3.081,2.131.569,10.428,3.633,10.745,3.116,1.14-1.86-.766-3.5-.766-3.5" fill="none" stroke="#00426e" stroke-linecap="round" stroke-linejoin="round" stroke-width="1.414"/>
          <path id="パス_147" data-name="パス 147" d="M289.451,78.9s-4.694,6.036-5.381,18.559" fill="none" stroke="#00426e" stroke-linecap="round" stroke-linejoin="round" stroke-width="1.414"/>
          <path id="パス_148" data-name="パス 148" d="M276.118,96.855s.461-11.519,4.038-15.936" fill="none" stroke="#00426e" stroke-linecap="round" stroke-linejoin="round" stroke-width="1.414"/>
          <g id="グループ_43" data-name="グループ 43">
            <g id="グループ_42" data-name="グループ 42">
              <g id="グループ_41" data-name="グループ 41">
                <line id="線_5" data-name="線 5" x1="11.136" y2="1.673" transform="translate(292.206 116.365)" fill="none" stroke="#00426e" stroke-linecap="round" stroke-linejoin="round" stroke-width="1.414"/>
              </g>
              <path id="パス_149" data-name="パス 149" d="M274.2,118.866s2.732-.793,4.443.251" fill="none" stroke="#00426e" stroke-linecap="round" stroke-linejoin="round" stroke-width="1.414"/>
              <path id="パス_150" data-name="パス 150" d="M263.556,117.729c-.112.913.214,1.642-.389,1.577a2.013,2.013,0,0,1-1.568-1.866A2.041,2.041,0,0,1,263.573,116C264.176,116.066,263.668,116.817,263.556,117.729Z" fill="#00426e"/>
              <path id="パス_151" data-name="パス 151" d="M291.327,118.714c.056.918-.314,1.626.292,1.6s1.736-.847,1.68-1.765-1.275-1.586-1.881-1.558S291.272,117.8,291.327,118.714Z" fill="#00426e"/>
              <rect id="長方形_59" data-name="長方形 59" width="10.45" height="6.346" rx="1.506" transform="translate(273.865 122.691) rotate(-178.231)" fill="none" stroke="#00426e" stroke-linecap="round" stroke-linejoin="round" stroke-width="1.414"/>
              <rect id="長方形_60" data-name="長方形 60" width="12.363" height="6.346" rx="1.638" transform="matrix(-1, -0.031, 0.031, -1, 291.258, 123.229)" fill="none" stroke="#00426e" stroke-linecap="round" stroke-linejoin="round" stroke-width="1.414"/>
            </g>
            <path id="パス_152" data-name="パス 152" d="M294.8,111.048s-.492,18.119,1.7,24.92l2.8-2.268s-1.568-15.245-1.065-21.935Z" fill="#e5e6e6" stroke="#00426e" stroke-linecap="round" stroke-linejoin="round" stroke-width="1.414"/>
            <path id="パス_153" data-name="パス 153" d="M272.954,143.648s.351,2.483,6.8,3.211c5.733.648,14.673-2.115,21.821-15.568l-2.227.392a37.885,37.885,0,0,1-2.5,3.107,35.12,35.12,0,0,1-8.393,7.108C284.177,144.342,280.84,145.92,272.954,143.648Z" fill="#e5e6e6" stroke="#00426e" stroke-linecap="round" stroke-linejoin="round" stroke-width="1.414"/>
            <path id="パス_154" data-name="パス 154" d="M283.226,144.62a17.985,17.985,0,0,1,.751,1.743" fill="none" stroke="#00426e" stroke-linecap="round" stroke-linejoin="round" stroke-width="1.414"/>
            <path id="パス_155" data-name="パス 155" d="M286.8,142.974s.6,1.487.6,1.646" fill="none" stroke="#00426e" stroke-linecap="round" stroke-linejoin="round" stroke-width="1.414"/>
          </g>
        </g>
        <g id="グループ_45" data-name="グループ 45">
          <path id="パス_156" data-name="パス 156" d="M217.268,216.692a7.938,7.938,0,0,1-5.886,11.212c-3.872.658-7.555-.69-9.741-5.477s-.772-9.466,2.51-11.623C211.26,206.133,215.082,211.9,217.268,216.692Z" fill="#fff" stroke="#00426e" stroke-linecap="round" stroke-linejoin="round" stroke-width="1.414"/>
          <path id="パス_157" data-name="パス 157" d="M181.946,184.78a143.468,143.468,0,0,0,24.878-5.224c10.432-3.165,26.154-6.238,35.248-13.833,0,0,10.188,25.17,14.51,34.1C262.82,212.715,283.5,244.1,283.5,244.1a5.945,5.945,0,0,0-3.953.22c-6.811,2.315-16.415,3.734-22.651,3.283-11.141-.806-14.586-1.847-19.743-6.7,0,0-2.959-.734-7.422,1.548-4.656,2.381-8.275,4.255-8.275,4.255-1.592-.141-10.453-18.5-25.2-37.054C189.637,201.327,185.968,191.558,181.946,184.78Z" fill="#fff" stroke="#00426e" stroke-linecap="round" stroke-linejoin="round" stroke-width="1.414"/>
          <path id="パス_158" data-name="パス 158" d="M205.521,222.724l3.129-2.495c3.155-4.148-.348-5.136-.348-5.136l-2.764,2.617L201.21,220.2S200.059,225.319,205.521,222.724Z" fill="#fff" stroke="#00426e" stroke-linecap="round" stroke-linejoin="round" stroke-width="1.414"/>
          <path id="パス_159" data-name="パス 159" d="M201.287,215.507l3.129-2.5c3.155-4.148-.348-5.136-.348-5.136l-3.089,2.612-3.507,2.522S195.825,218.1,201.287,215.507Z" fill="#fff" stroke="#00426e" stroke-linecap="round" stroke-linejoin="round" stroke-width="1.414"/>
          <path id="パス_160" data-name="パス 160" d="M203.133,219.652l4.384-3.5c3.281-3.644-.461-4.3-.461-4.3l-3.807,2.343-4.287,2.373S197.491,221.828,203.133,219.652Z" fill="#fff" stroke="#00426e" stroke-linecap="round" stroke-linejoin="round" stroke-width="1.414"/>
          <path id="パス_161" data-name="パス 161" d="M207.4,226.217l2.527-2.469c2.766-2.506-.138-4.044-.138-4.044l-2.824,2.1-3.617,1.629S202.092,228.175,207.4,226.217Z" fill="#fff" stroke="#00426e" stroke-linecap="round" stroke-linejoin="round" stroke-width="1.414"/>
          <path id="パス_162" data-name="パス 162" d="M216.968,227.371s13.347,6.672,20.184,13.53" fill="none" stroke="#00426e" stroke-linecap="round" stroke-linejoin="round" stroke-width="1.414"/>
        </g>
        <g id="グループ_46" data-name="グループ 46">
          <path id="パス_163" data-name="パス 163" d="M271.1,221.234h0a10.722,10.722,0,0,1,4.738-1.1h3.739s5.428,1.163,6.8,3.656,1.743,6.922.98,8.989-4.3,5.081-5.993,5.82c-1.286.563-6.261.974-8.556,1.138a10.615,10.615,0,0,1-2.295-.085l-4.777-.691s-3.255-.827-3.345-1.852c-.216-2.477,2.4-1.21,2.4-1.21l-3.914-1.15-2.851-1.333s-1.539-2.429,1.377-2.429c0,0-6.881-.841-6.412-3.159.422-2.084,3.5-1.377,3.5-1.377s-2.969-3.132,1.161-3.455c0,0,6.632-.283,10.241-.764A10.382,10.382,0,0,0,271.1,221.234Z" fill="#fff" stroke="#00426e" stroke-linecap="round" stroke-linejoin="round" stroke-width="1.414"/>
          <path id="パス_164" data-name="パス 164" d="M256.495,226.448s9.574,1.135,15.3.6" fill="none" stroke="#00426e" stroke-linecap="round" stroke-linejoin="round" stroke-width="1.414"/>
          <path id="パス_165" data-name="パス 165" d="M259.411,230.984a46.664,46.664,0,0,0,12.662,1.094" fill="none" stroke="#00426e" stroke-linecap="round" stroke-linejoin="round" stroke-width="1.414"/>
          <path id="パス_166" data-name="パス 166" d="M264.8,235.9s5.222,1.267,7.49.187" fill="none" stroke="#00426e" stroke-linecap="round" stroke-linejoin="round" stroke-width="1.414"/>
        </g>
      </g>
    </g>
  </g>
</svg>
